<!DOCTYPE svg PUBLIC "-//W3C//DTD SVG 1.1//EN" "http://www.w3.org/Graphics/SVG/1.1/DTD/svg11.dtd">
<svg xmlns="http://www.w3.org/2000/svg" viewBox="0 0 395 111">
<path fill="#fcfbfb" stroke="#fcfbfb" d="M35.032 18.309c-5.18 1.651-12.618 9.335-13.977 14.441-1.905 7.154-.072 11.449 8.543 20.008 8.159 8.106 10.681 12.048 10.212 15.958-.847 7.058-6.934 4.333-9.873-4.421-2.462-7.333-6.381-8.158-12.86-2.706-5.34 4.493-3.121 10.608 5.965 16.438 10.716 6.876 22.645 4.72 29.583-5.348 6.694-9.714 5.517-17.566-4.148-27.679-9.014-9.432-10.448-13.345-6.62-18.072l1.857-2.294 1.845 2.816c1.22 1.862 1.898 4.887 2.001 8.933.186 7.328 1.966 8.391 6.628 3.959 14.203-13.499 1.156-28.505-19.156-22.033m59.192.662c-11.227 4.04-21.19 13.538-26.972 25.713-7.656 16.122-4.64 28.967 8.207 34.949 20.679 9.629 43.932-8.352 45.303-35.032 1.011-19.684-5.047-25.314-16.458-15.295-3.942 3.461-4.078 5.233-.886 11.532 5.048 9.962 3.906 19.584-3.213 27.068C90.493 78.115 82.511 72.52 82.504 55.5c-.006-14.871 7.079-26.112 18.784-29.802C107.34 23.791 112 20.627 112 18.427c0-2.143-11.268-1.798-17.776.544m47.667-.495c-4.216 2.327-12.394 25.533-17.017 48.288C121.892 81.441 122.321 82 136.573 82c12.534 0 15.208-1.064 19.022-7.572 3.705-6.323 2.601-7.141-7.043-5.222-4.154.826-7.552 1.192-7.552.813 0-1.634 4.608-14.481 10.189-28.41 3.927-9.798 6.073-16.611 6.167-19.57l.144-4.539-6.5-.232c-4.182-.15-7.43.281-9.109 1.208m32.715-.147c-8.076 2.438-10.206 10.224-2.597 9.499 2.195-.21 3.991-.17 3.991.087 0 .258-3.207 10.17-7.127 22.027-8.557 25.881-9.26 31.377-4.077 31.875 8.17.785 14.321-5.232 17.704-17.317 3.599-12.854 9.732-32.042 10.503-32.857 1.151-1.217 3.98 3.48 4.675 7.76.952 5.866-1.954 11.889-7.743 16.048-6.743 4.845-7.041 8.554-.685 8.539 19.724-.045 33.619-28.515 20.109-41.201-5.822-5.467-23.781-7.772-34.753-4.46m74.608.562c-23.49 8.114-39.427 40.547-26.922 54.789 13.386 15.245 39.484 8.801 49.323-12.18 6.428-13.709 5.435-34.946-1.723-36.818-2.851-.746-8.935 2.392-12.229 6.307-2.806 3.334-2.756 3.785 1.265 11.472 8.376 16.014-10.114 40.395-19.625 25.879-2.796-4.268-2.571-21.178.367-27.536 3.3-7.143 10.104-13.392 16.652-15.295 5.668-1.648 11.252-5.771 10.175-7.513-1.002-1.622-11.583-1.074-17.283.895m94.309 2.323C335.724 29.012 337.447 33 348.615 33h7.215l-3.826 9.367C347.904 52.405 342 71.912 342 75.42c0 6.511 6.244 8.385 13.59 4.08 5.208-3.052 6.287-5.7 12.507-30.694 4.084-16.412 4.584-17.741 6.903-18.328 3.936-.998 6-3.46 6-7.158 0-4.574-2.071-5.224-19.107-5.999l-13.847-.63-4.523 4.523m-50.499-1.243c-7.179 1.794-9.187 8.162-2.847 9.029l3.658.5-2.41 5.9c-5.714 13.994-12.529 36.807-12.228 40.934.393 5.406 4.459 6.23 11.211 2.273 5.366-3.145 6.624-5.929 14.047-31.088 6.337-21.48 5.752-20.282 9.046-18.518 4.319 2.311 5.1 10.27 1.642 16.732-1.284 2.398-7.223 7.267-8.865 7.267-4.614 0-3.575 7.368 2.444 17.332 7.912 13.099 18.147 15.493 24.148 5.65 3.285-5.389 2.821-7.594-2.12-10.076-8.437-4.237-13.833-9.906-9.43-9.906.726 0 3.213-1.62 5.526-3.6 11.063-9.469 9.721-22.923-2.982-29.907-5.785-3.18-22.676-4.561-30.84-2.522" fill-rule="evenodd"/>
<path fill="#fcf9f9" stroke="#fcf9f9" d="M32.972 19.75c-6.908 3.614-11.053 8.787-11.71 14.616-.799 7.092.341 9.467 8.677 18.075 10.393 10.732 12.585 15.892 8.492 19.986-3.026 3.025-5.598.244-9.515-10.286-1.59-4.277-7.309-4.055-12.028.466-4.012 3.844-3.637 6.039 1.956 11.43 11.968 11.535 28.241 9.719 35.055-3.913 4.945-9.891 3.593-15.375-6.437-26.1-8.134-8.697-9.383-12.43-5.689-16.992l1.774-2.19 1.948 2.152c1.425 1.575 2.053 4.012 2.339 9.079.216 3.81.807 6.927 1.314 6.927C52.943 43 60 33.644 60 28.612 60 18 45.442 13.226 32.972 19.75M96.5 18.402c-15.803 5.011-29.225 20.13-32.714 36.85-2.229 10.685 1.648 18.849 11.173 23.527 22.689 11.142 47.812-10.914 45.794-40.204-.885-12.845-4.422-16.01-12.73-11.39-7.134 3.967-8.153 6.688-4.766 12.722 5.058 9.012 4.654 17.355-1.272 26.301C92.808 80.064 82.5 74.399 82.5 55.5c0-15.952 5.599-25.07 18.396-29.96 7.017-2.682 11.579-5.962 10.567-7.6-.824-1.333-10.215-1.044-14.963.462m47-.457c-5.115 2.094-10.397 15.273-17.057 42.555-4.736 19.406-3.772 21.505 9.872 21.494 9.908-.007 14.004-1.344 17.641-5.757 5.788-7.021 4.037-8.345-7.706-5.826-3.437.738-6.25 1.229-6.25 1.093 0-1.386 6.074-18.156 10.399-28.715 6.778-16.54 8.32-22.218 6.598-24.292-1.358-1.636-9.986-1.989-13.497-.552m32.258.382c-5.056 1.585-7.758 4.119-7.758 7.277 0 2.537.145 2.601 4.443 1.957l4.443-.666-6.877 20.578c-11.11 33.246-11.288 36.425-1.874 33.605 8.499-2.547 11.146-5.917 14.706-18.726C186.755 48.268 192.357 31 193.012 31c2.055 0 4.364 4.54 4.712 9.265.491 6.654-1.661 10.997-7.724 15.589-9.432 7.144-3.18 10.97 8.517 5.212 16.73-8.236 21.673-31.111 8.601-39.797-6.433-4.275-22.346-5.768-31.36-2.942m73.821.776c-22.426 7.713-38.408 37.449-28.324 52.701 6.271 9.487 22.283 12.778 33.529 6.893 14.571-7.625 23.571-26.932 20.429-43.825-1.952-10.497-6.503-12.578-14.385-6.577-5.262 4.005-5.677 6.096-2.469 12.428 4.982 9.831 4.04 18.946-2.782 26.916-10.359 12.102-19.366 5.065-18.378-14.357.716-14.071 8.453-25.446 19.138-28.137 4.857-1.223 9.663-4.564 9.663-6.718s-9.306-1.771-16.421.676m95.651.408c-9.878 8.05-7.364 14.328 5.316 13.277 6.46-.536 6.305-1.245 1.971 9.031-3.691 8.752-9 25.271-10.052 31.279-1.03 5.877 2.885 9.713 8.268 8.1 5.012-1.502 9.115-4.681 10.427-8.079 1.94-5.025 10.858-40.28 10.384-41.048-.263-.426 1.299-1.307 3.472-1.958 4.072-1.22 5.984-3.464 5.984-7.024 0-3.884-3.673-5.001-18.537-5.641l-13.963-.601-3.27 2.664m-52.63.967c-6.764 2.41-8.27 8.522-2.1 8.522 1.925 0 3.5.114 3.5.253 0 .138-1.812 4.976-4.027 10.75C284.764 53.584 279 72.494 279 76.004c0 5.406 4.806 6.225 11.75 2.002 4.457-2.711 6.352-7.014 13.256-30.106 3.339-11.171 6.187-20.427 6.329-20.568.142-.142 1.675.604 3.407 1.657 7.725 4.698 3.942 19.081-6.326 24.052-5.329 2.58-5.345 3.319-.287 13.767 6.915 14.285 17.945 19.206 24.318 10.851 4.795-6.287 4.472-8.79-1.495-11.602C324.965 63.707 319 58.769 319 56.99c0-.47 1.012-1.163 2.25-1.539 13.859-4.209 16.969-22.081 5.38-30.919-6.962-5.311-24.606-7.413-34.03-4.054" fill-rule="evenodd"/>
<path fill="#fac9cb" stroke="#fac9cb" d="M36.882 18.327c-12.941 4.816-18.971 15.361-14.351 25.097.842 1.774 4.892 6.487 8.999 10.474 7.724 7.496 8.843 9.535 8.294 15.113-.758 7.693-7.541 5.12-10.065-3.817-2.056-7.281-6.971-8.136-12.868-2.238-3.62 3.619-2.613 7.512 3.115 12.049 14.673 11.621 34.135 4.993 35.785-12.185.687-7.146-.353-9.556-7.217-16.728-8.673-9.062-10.482-13.659-7.539-19.158C43.848 21.679 48 27.651 48 36.95c0 7.364.881 7.575 6.619 1.587 6.767-7.062 6.82-13.942.144-18.882-3.418-2.53-12.782-3.226-17.881-1.328m61.816-.231C76 23.437 57.09 53.173 65.607 70.131c5.16 10.274 24.121 14.321 35.595 7.597 13.753-8.06 22.018-26.69 19.011-42.856-1.89-10.167-5.658-12.236-12.813-7.039-7.024 5.103-7.084 5.325-3.539 13.017 5.186 11.25 3.252 22.67-5.016 29.627-17.302 14.559-24.389-22.016-7.597-39.209 2.922-2.992 5.947-4.835 10.326-6.293 13.641-4.539 11.271-10.209-2.876-6.879m45.302.21c-4.656 1.588-7.548 7.62-13.359 27.867-5.42 18.883-7.503 30.235-5.99 32.639 1.669 2.652 21.68 2.935 25.853.366 3.169-1.951 7.394-8.613 6.212-9.795-.382-.383-4.139.061-8.348.985-4.208.925-7.861 1.473-8.116 1.217-.717-.717 3.366-12.719 9.273-27.26 9.86-24.269 10.11-27.375 2.19-27.269-2.318.031-5.79.594-7.715 1.25m34.002-.269c-9.568 2.007-13.969 9.818-5.136 9.116 3.356-.267 4.24-.036 3.821 1-5.277 13.046-15.862 48.722-15.135 51.011 1.134 3.572 10.863 1.527 15.277-3.211 2.21-2.372 2.981-4.537 10.762-30.203 2.626-8.663 5.149-15.75 5.607-15.75 1.95 0 4.795 6.694 4.798 11.29.005 6.39-2.767 11.487-8.396 15.439-5.994 4.208-6.067 6.271-.222 6.271 17.004 0 30.932-22.617 22.525-36.577-4.405-7.317-20.28-11.243-33.901-8.386m72.46.99c-20.087 6.371-37.003 32.794-31.022 48.456 6.193 16.215 31.277 18.311 44.712 3.736 8.131-8.82 12.769-23.917 10.892-35.451-1.857-11.406-4.997-13.222-13.325-7.705-6.006 3.978-6.425 5.64-3.056 12.126 4.058 7.811 3.963 16.314-.265 23.811-7.696 13.647-18.411 12.886-21.402-1.519-3.551-17.104 5.318-33.523 20.49-37.934 5.36-1.558 9.191-4.643 8.053-6.484-1.009-1.633-8.372-1.162-15.077.964m96.361-.249c-10.926 7.206-9.116 14.957 3.204 13.719l6.843-.687-4.386 10.845c-8.046 19.899-11.235 34.194-8.284 37.145 3.243 3.243 14.48-1.15 16.659-6.512C362.642 68.899 371 35.953 371 33.313c0-1.307.563-2.525 1.25-2.708 6.347-1.686 7.223-2.271 8.126-5.421 1.415-4.933-.267-5.913-12.232-7.13-14.293-1.455-18.219-1.321-21.321.724m-51.713 1.24c-8.197 1.728-11.296 8.129-4.262 8.803 2.601.249 3.233.695 2.831 2-.284.923-2.775 7.771-5.536 15.218-5.984 16.138-9.517 29.206-8.643 31.962.862 2.715 5.6 2.633 10.614-.185 5.046-2.836 6.483-5.981 13.398-29.316 3.097-10.45 5.81-19.562 6.028-20.25 1.31-4.124 8.469 3.022 8.438 8.423-.042 7.308-5.585 15.308-12.228 17.648-5.134 1.808 4.268 21.051 12.319 25.215 6.502 3.362 12.572.962 15.541-6.146 1.846-4.417 2.046-4.024-3.467-6.818-10.662-5.402-13.435-9.586-7.893-11.906 7.528-3.151 12.844-12.448 11.36-19.868-2.285-11.422-20.765-18.517-38.5-14.78" fill-rule="evenodd"/>
<path fill="#ec1d25" stroke="#ec1d25" d="M38.718 18.092c-8.042 1.893-14.392 7.361-16.711 14.387-2.168 6.569-.686 9.979 8.474 19.502 9.133 9.493 11.527 14.288 9.621 19.269-2.301 6.013-6.809 3.472-10.487-5.91-2.616-6.672-4.715-7.295-11.156-3.315-4.935 3.05-4.66 6.167 1.024 11.614 11.266 10.794 27.214 8.673 34.191-4.546 4.551-8.623 3.06-14.455-6.128-23.973-8.845-9.161-10.559-15.083-5.652-19.524 3.346-3.029 7.602 5.572 6.406 12.944-.885 5.453 4.634 3.539 8.682-3.012 7.022-11.36-3.087-21.01-18.264-17.436m61.282.006c-17.558 3.429-34.516 22.409-35.778 40.044-.802 11.215 4.203 18.181 15.404 21.438 22.381 6.506 44.674-17.659 40.418-43.812-1.719-10.563-4.406-12.504-11.528-8.33-7.384 4.327-7.848 5.68-4.429 12.909 5.291 11.183 3.359 22.403-5.186 30.124-7.604 6.87-14.511 3.54-16.942-8.166-3.489-16.807 5.351-33.25 20.604-38.326 12.588-4.189 10.72-8.475-2.563-5.881m46.256-.123c-7.292 1.731-10.527 8.732-18.68 40.423-5.645 21.943-5.07 23.125 10.918 22.425 10.494-.459 13.4-1.789 16.876-7.725 2.487-4.247 2.214-4.345-6.686-2.414-4.218.916-7.978 1.356-8.355.978-.964-.964 1.848-9.508 9.434-28.662 9.929-25.072 9.503-28.114-3.507-25.025m34.244-.009c-6.81 1.117-10.179 2.566-11.439 4.92-1.997 3.731-1.362 4.427 3.439 3.769 2.475-.339 4.5-.348 4.5-.019 0 .329-3.192 10.333-7.093 22.231-4.461 13.606-7.151 23.488-7.25 26.633l-.157 5 3.239-.146c8.607-.389 13.066-5.349 16.734-18.612C186.852 45.903 192.118 30 192.983 30c1.606 0 4.784 4.946 5.447 8.476 1.374 7.324-1.42 12.518-10.949 20.356-5.87 4.829 2.179 5.677 11.182 1.178 14.777-7.384 20.284-27.267 10.168-36.712-5.118-4.779-17.497-7.109-28.331-5.332m72.605.617c-12.247 3.293-23.995 13.318-30.005 25.603-7.878 16.102-5.481 27.953 6.809 33.672 21.04 9.791 43.395-7.222 44.861-34.14.99-18.194-6.23-23.527-16.687-12.323l-2.418 2.59 2.865 5.662c5.676 11.218 3.878 23.138-4.652 30.845-10.176 9.193-19.111-.242-17.576-18.558 1.099-13.109 8.862-23.874 19.777-27.422 13.869-4.509 11.239-9.752-2.974-5.929m95.345-.213c-4.407 1.973-8.621 7.344-8.253 10.52.299 2.578.404 2.61 8.554 2.61 4.538 0 8.251.157 8.25.35-.001.192-2.002 5.367-4.447 11.5-8.741 21.921-11.073 32.965-7.621 36.089 3.384 3.063 12.552-.609 15.434-6.181 1.894-3.664 10.827-38.676 10.433-40.895-.213-1.203.716-1.958 3.2-2.602 3.969-1.029 5.504-2.32 6.427-5.406 1.06-3.547-1.585-5.05-10.126-5.753-4.291-.353-10.276-.857-13.301-1.12-3.474-.301-6.623.025-8.55.888M302 19.494c-.825.208-3.67.665-6.322 1.015C287.931 21.53 283.315 28 290.333 28c4.77 0 4.791.2 1.015 9.801-9.431 23.976-13.306 40.51-9.81 41.852 2.343.899 10.186-2.487 12.463-5.381 1.915-2.436 8.177-20.955 13.194-39.022 2.55-9.185 3.973-10.173 8.35-5.795 5.614 5.613 1.902 18.647-6.653 23.364-5.791 3.193-5.856 3.731-1.542 12.709 7.76 16.147 19.56 20.092 25.408 8.494l2.258-4.478-4.758-2.377C325.636 64.858 318 58.401 318 56.802c0-.435 2.028-1.745 4.506-2.91 12.457-5.855 14.851-19.007 5.033-27.649-5.723-5.037-18.717-8.471-25.539-6.749" fill-rule="evenodd"/>
</svg>